<mxfile host="app.diagrams.net" modified="2023-06-09T05:35:51.748Z" agent="Mozilla/5.0 (Windows NT 10.0; Win64; x64) AppleWebKit/537.36 (KHTML, like Gecko) Chrome/114.0.0.0 Safari/537.36" etag="EiNhoRp19kZ2fHI3yC2K" version="21.3.8" type="github">
  <diagram name="Page-1" id="2cc2dc42-3aac-f2a9-1cec-7a8b7cbee084">
    <mxGraphModel dx="2850" dy="1765" grid="1" gridSize="10" guides="1" tooltips="1" connect="1" arrows="1" fold="1" page="1" pageScale="1" pageWidth="1100" pageHeight="850" background="#ffffff" math="0" shadow="0">
      <root>
        <mxCell id="0" />
        <mxCell id="1" parent="0" />
        <mxCell id="7026571954dc6520-1" value="" style="strokeWidth=1;shadow=0;dashed=0;align=center;html=1;shape=mxgraph.mockup.containers.browserWindow;rSize=0;strokeColor=#666666;mainText=,;recursiveResize=0;rounded=0;labelBackgroundColor=none;fontFamily=Verdana;fontSize=12;container=0;" parent="1" vertex="1">
          <mxGeometry x="-150" y="-600" width="1050" height="820" as="geometry" />
        </mxCell>
        <mxCell id="hdS0WSCRbc31MkpZoAuO-2" value="" style="shape=table;startSize=0;container=1;collapsible=0;childLayout=tableLayout;fontSize=16;" parent="1" vertex="1">
          <mxGeometry x="90" y="-260" width="750" height="390" as="geometry" />
        </mxCell>
        <mxCell id="hdS0WSCRbc31MkpZoAuO-3" value="" style="shape=tableRow;horizontal=0;startSize=0;swimlaneHead=0;swimlaneBody=0;strokeColor=inherit;top=0;left=0;bottom=0;right=0;collapsible=0;dropTarget=0;fillColor=none;points=[[0,0.5],[1,0.5]];portConstraint=eastwest;fontSize=16;" parent="hdS0WSCRbc31MkpZoAuO-2" vertex="1">
          <mxGeometry width="750" height="64" as="geometry" />
        </mxCell>
        <mxCell id="hdS0WSCRbc31MkpZoAuO-4" value="日" style="shape=partialRectangle;html=1;whiteSpace=wrap;connectable=0;strokeColor=inherit;overflow=hidden;fillColor=none;top=0;left=0;bottom=0;right=0;pointerEvents=1;fontSize=16;" parent="hdS0WSCRbc31MkpZoAuO-3" vertex="1">
          <mxGeometry width="107" height="64" as="geometry">
            <mxRectangle width="107" height="64" as="alternateBounds" />
          </mxGeometry>
        </mxCell>
        <mxCell id="hdS0WSCRbc31MkpZoAuO-5" value="" style="shape=partialRectangle;html=1;whiteSpace=wrap;connectable=0;strokeColor=inherit;overflow=hidden;fillColor=none;top=0;left=0;bottom=0;right=0;pointerEvents=1;fontSize=16;" parent="hdS0WSCRbc31MkpZoAuO-3" vertex="1">
          <mxGeometry x="107" width="108" height="64" as="geometry">
            <mxRectangle width="108" height="64" as="alternateBounds" />
          </mxGeometry>
        </mxCell>
        <mxCell id="hdS0WSCRbc31MkpZoAuO-6" value="" style="shape=partialRectangle;html=1;whiteSpace=wrap;connectable=0;strokeColor=inherit;overflow=hidden;fillColor=none;top=0;left=0;bottom=0;right=0;pointerEvents=1;fontSize=16;" parent="hdS0WSCRbc31MkpZoAuO-3" vertex="1">
          <mxGeometry x="215" width="107" height="64" as="geometry">
            <mxRectangle width="107" height="64" as="alternateBounds" />
          </mxGeometry>
        </mxCell>
        <mxCell id="hdS0WSCRbc31MkpZoAuO-7" value="" style="shape=partialRectangle;html=1;whiteSpace=wrap;connectable=0;strokeColor=inherit;overflow=hidden;fillColor=none;top=0;left=0;bottom=0;right=0;pointerEvents=1;fontSize=16;" parent="hdS0WSCRbc31MkpZoAuO-3" vertex="1">
          <mxGeometry x="322" width="106" height="64" as="geometry">
            <mxRectangle width="106" height="64" as="alternateBounds" />
          </mxGeometry>
        </mxCell>
        <mxCell id="hdS0WSCRbc31MkpZoAuO-8" value="" style="shape=partialRectangle;html=1;whiteSpace=wrap;connectable=0;strokeColor=inherit;overflow=hidden;fillColor=none;top=0;left=0;bottom=0;right=0;pointerEvents=1;fontSize=16;" parent="hdS0WSCRbc31MkpZoAuO-3" vertex="1">
          <mxGeometry x="428" width="92" height="64" as="geometry">
            <mxRectangle width="92" height="64" as="alternateBounds" />
          </mxGeometry>
        </mxCell>
        <mxCell id="hdS0WSCRbc31MkpZoAuO-9" value="" style="shape=partialRectangle;html=1;whiteSpace=wrap;connectable=0;strokeColor=inherit;overflow=hidden;fillColor=none;top=0;left=0;bottom=0;right=0;pointerEvents=1;fontSize=16;" parent="hdS0WSCRbc31MkpZoAuO-3" vertex="1">
          <mxGeometry x="520" width="123" height="64" as="geometry">
            <mxRectangle width="123" height="64" as="alternateBounds" />
          </mxGeometry>
        </mxCell>
        <mxCell id="hdS0WSCRbc31MkpZoAuO-10" value="" style="shape=partialRectangle;html=1;whiteSpace=wrap;connectable=0;strokeColor=inherit;overflow=hidden;fillColor=none;top=0;left=0;bottom=0;right=0;pointerEvents=1;fontSize=16;" parent="hdS0WSCRbc31MkpZoAuO-3" vertex="1">
          <mxGeometry x="643" width="107" height="64" as="geometry">
            <mxRectangle width="107" height="64" as="alternateBounds" />
          </mxGeometry>
        </mxCell>
        <mxCell id="hdS0WSCRbc31MkpZoAuO-11" value="" style="shape=tableRow;horizontal=0;startSize=0;swimlaneHead=0;swimlaneBody=0;strokeColor=inherit;top=0;left=0;bottom=0;right=0;collapsible=0;dropTarget=0;fillColor=none;points=[[0,0.5],[1,0.5]];portConstraint=eastwest;fontSize=16;" parent="hdS0WSCRbc31MkpZoAuO-2" vertex="1">
          <mxGeometry y="64" width="750" height="67" as="geometry" />
        </mxCell>
        <mxCell id="hdS0WSCRbc31MkpZoAuO-12" value="" style="shape=partialRectangle;html=1;whiteSpace=wrap;connectable=0;strokeColor=inherit;overflow=hidden;fillColor=none;top=0;left=0;bottom=0;right=0;pointerEvents=1;fontSize=16;" parent="hdS0WSCRbc31MkpZoAuO-11" vertex="1">
          <mxGeometry width="107" height="67" as="geometry">
            <mxRectangle width="107" height="67" as="alternateBounds" />
          </mxGeometry>
        </mxCell>
        <mxCell id="hdS0WSCRbc31MkpZoAuO-13" value="" style="shape=partialRectangle;html=1;whiteSpace=wrap;connectable=0;strokeColor=inherit;overflow=hidden;fillColor=none;top=0;left=0;bottom=0;right=0;pointerEvents=1;fontSize=16;" parent="hdS0WSCRbc31MkpZoAuO-11" vertex="1">
          <mxGeometry x="107" width="108" height="67" as="geometry">
            <mxRectangle width="108" height="67" as="alternateBounds" />
          </mxGeometry>
        </mxCell>
        <mxCell id="hdS0WSCRbc31MkpZoAuO-14" value="" style="shape=partialRectangle;html=1;whiteSpace=wrap;connectable=0;strokeColor=inherit;overflow=hidden;fillColor=none;top=0;left=0;bottom=0;right=0;pointerEvents=1;fontSize=16;" parent="hdS0WSCRbc31MkpZoAuO-11" vertex="1">
          <mxGeometry x="215" width="107" height="67" as="geometry">
            <mxRectangle width="107" height="67" as="alternateBounds" />
          </mxGeometry>
        </mxCell>
        <mxCell id="hdS0WSCRbc31MkpZoAuO-15" value="" style="shape=partialRectangle;html=1;whiteSpace=wrap;connectable=0;strokeColor=inherit;overflow=hidden;fillColor=none;top=0;left=0;bottom=0;right=0;pointerEvents=1;fontSize=16;" parent="hdS0WSCRbc31MkpZoAuO-11" vertex="1">
          <mxGeometry x="322" width="106" height="67" as="geometry">
            <mxRectangle width="106" height="67" as="alternateBounds" />
          </mxGeometry>
        </mxCell>
        <mxCell id="hdS0WSCRbc31MkpZoAuO-16" value="" style="shape=partialRectangle;html=1;whiteSpace=wrap;connectable=0;strokeColor=inherit;overflow=hidden;fillColor=none;top=0;left=0;bottom=0;right=0;pointerEvents=1;fontSize=16;" parent="hdS0WSCRbc31MkpZoAuO-11" vertex="1">
          <mxGeometry x="428" width="92" height="67" as="geometry">
            <mxRectangle width="92" height="67" as="alternateBounds" />
          </mxGeometry>
        </mxCell>
        <mxCell id="hdS0WSCRbc31MkpZoAuO-17" value="" style="shape=partialRectangle;html=1;whiteSpace=wrap;connectable=0;strokeColor=inherit;overflow=hidden;fillColor=none;top=0;left=0;bottom=0;right=0;pointerEvents=1;fontSize=16;" parent="hdS0WSCRbc31MkpZoAuO-11" vertex="1">
          <mxGeometry x="520" width="123" height="67" as="geometry">
            <mxRectangle width="123" height="67" as="alternateBounds" />
          </mxGeometry>
        </mxCell>
        <mxCell id="hdS0WSCRbc31MkpZoAuO-18" value="" style="shape=partialRectangle;html=1;whiteSpace=wrap;connectable=0;strokeColor=inherit;overflow=hidden;fillColor=none;top=0;left=0;bottom=0;right=0;pointerEvents=1;fontSize=16;" parent="hdS0WSCRbc31MkpZoAuO-11" vertex="1">
          <mxGeometry x="643" width="107" height="67" as="geometry">
            <mxRectangle width="107" height="67" as="alternateBounds" />
          </mxGeometry>
        </mxCell>
        <mxCell id="hdS0WSCRbc31MkpZoAuO-19" value="" style="shape=tableRow;horizontal=0;startSize=0;swimlaneHead=0;swimlaneBody=0;strokeColor=inherit;top=0;left=0;bottom=0;right=0;collapsible=0;dropTarget=0;fillColor=none;points=[[0,0.5],[1,0.5]];portConstraint=eastwest;fontSize=16;" parent="hdS0WSCRbc31MkpZoAuO-2" vertex="1">
          <mxGeometry y="131" width="750" height="64" as="geometry" />
        </mxCell>
        <mxCell id="hdS0WSCRbc31MkpZoAuO-20" value="" style="shape=partialRectangle;html=1;whiteSpace=wrap;connectable=0;strokeColor=inherit;overflow=hidden;fillColor=none;top=0;left=0;bottom=0;right=0;pointerEvents=1;fontSize=16;" parent="hdS0WSCRbc31MkpZoAuO-19" vertex="1">
          <mxGeometry width="107" height="64" as="geometry">
            <mxRectangle width="107" height="64" as="alternateBounds" />
          </mxGeometry>
        </mxCell>
        <mxCell id="hdS0WSCRbc31MkpZoAuO-21" value="" style="shape=partialRectangle;html=1;whiteSpace=wrap;connectable=0;strokeColor=inherit;overflow=hidden;fillColor=none;top=0;left=0;bottom=0;right=0;pointerEvents=1;fontSize=16;" parent="hdS0WSCRbc31MkpZoAuO-19" vertex="1">
          <mxGeometry x="107" width="108" height="64" as="geometry">
            <mxRectangle width="108" height="64" as="alternateBounds" />
          </mxGeometry>
        </mxCell>
        <mxCell id="hdS0WSCRbc31MkpZoAuO-22" value="" style="shape=partialRectangle;html=1;whiteSpace=wrap;connectable=0;strokeColor=inherit;overflow=hidden;fillColor=none;top=0;left=0;bottom=0;right=0;pointerEvents=1;fontSize=16;" parent="hdS0WSCRbc31MkpZoAuO-19" vertex="1">
          <mxGeometry x="215" width="107" height="64" as="geometry">
            <mxRectangle width="107" height="64" as="alternateBounds" />
          </mxGeometry>
        </mxCell>
        <mxCell id="hdS0WSCRbc31MkpZoAuO-23" value="" style="shape=partialRectangle;html=1;whiteSpace=wrap;connectable=0;strokeColor=inherit;overflow=hidden;fillColor=none;top=0;left=0;bottom=0;right=0;pointerEvents=1;fontSize=16;" parent="hdS0WSCRbc31MkpZoAuO-19" vertex="1">
          <mxGeometry x="322" width="106" height="64" as="geometry">
            <mxRectangle width="106" height="64" as="alternateBounds" />
          </mxGeometry>
        </mxCell>
        <mxCell id="hdS0WSCRbc31MkpZoAuO-24" value="" style="shape=partialRectangle;html=1;whiteSpace=wrap;connectable=0;strokeColor=inherit;overflow=hidden;fillColor=none;top=0;left=0;bottom=0;right=0;pointerEvents=1;fontSize=16;" parent="hdS0WSCRbc31MkpZoAuO-19" vertex="1">
          <mxGeometry x="428" width="92" height="64" as="geometry">
            <mxRectangle width="92" height="64" as="alternateBounds" />
          </mxGeometry>
        </mxCell>
        <mxCell id="hdS0WSCRbc31MkpZoAuO-25" value="" style="shape=partialRectangle;html=1;whiteSpace=wrap;connectable=0;strokeColor=inherit;overflow=hidden;fillColor=none;top=0;left=0;bottom=0;right=0;pointerEvents=1;fontSize=16;" parent="hdS0WSCRbc31MkpZoAuO-19" vertex="1">
          <mxGeometry x="520" width="123" height="64" as="geometry">
            <mxRectangle width="123" height="64" as="alternateBounds" />
          </mxGeometry>
        </mxCell>
        <mxCell id="hdS0WSCRbc31MkpZoAuO-26" value="" style="shape=partialRectangle;html=1;whiteSpace=wrap;connectable=0;strokeColor=inherit;overflow=hidden;fillColor=none;top=0;left=0;bottom=0;right=0;pointerEvents=1;fontSize=16;" parent="hdS0WSCRbc31MkpZoAuO-19" vertex="1">
          <mxGeometry x="643" width="107" height="64" as="geometry">
            <mxRectangle width="107" height="64" as="alternateBounds" />
          </mxGeometry>
        </mxCell>
        <mxCell id="hdS0WSCRbc31MkpZoAuO-27" value="" style="shape=tableRow;horizontal=0;startSize=0;swimlaneHead=0;swimlaneBody=0;strokeColor=inherit;top=0;left=0;bottom=0;right=0;collapsible=0;dropTarget=0;fillColor=none;points=[[0,0.5],[1,0.5]];portConstraint=eastwest;fontSize=16;" parent="hdS0WSCRbc31MkpZoAuO-2" vertex="1">
          <mxGeometry y="195" width="750" height="64" as="geometry" />
        </mxCell>
        <mxCell id="hdS0WSCRbc31MkpZoAuO-28" value="" style="shape=partialRectangle;html=1;whiteSpace=wrap;connectable=0;strokeColor=inherit;overflow=hidden;fillColor=none;top=0;left=0;bottom=0;right=0;pointerEvents=1;fontSize=16;" parent="hdS0WSCRbc31MkpZoAuO-27" vertex="1">
          <mxGeometry width="107" height="64" as="geometry">
            <mxRectangle width="107" height="64" as="alternateBounds" />
          </mxGeometry>
        </mxCell>
        <mxCell id="hdS0WSCRbc31MkpZoAuO-29" value="" style="shape=partialRectangle;html=1;whiteSpace=wrap;connectable=0;strokeColor=inherit;overflow=hidden;fillColor=none;top=0;left=0;bottom=0;right=0;pointerEvents=1;fontSize=16;" parent="hdS0WSCRbc31MkpZoAuO-27" vertex="1">
          <mxGeometry x="107" width="108" height="64" as="geometry">
            <mxRectangle width="108" height="64" as="alternateBounds" />
          </mxGeometry>
        </mxCell>
        <mxCell id="hdS0WSCRbc31MkpZoAuO-30" value="" style="shape=partialRectangle;html=1;whiteSpace=wrap;connectable=0;strokeColor=inherit;overflow=hidden;fillColor=none;top=0;left=0;bottom=0;right=0;pointerEvents=1;fontSize=16;" parent="hdS0WSCRbc31MkpZoAuO-27" vertex="1">
          <mxGeometry x="215" width="107" height="64" as="geometry">
            <mxRectangle width="107" height="64" as="alternateBounds" />
          </mxGeometry>
        </mxCell>
        <mxCell id="hdS0WSCRbc31MkpZoAuO-31" value="" style="shape=partialRectangle;html=1;whiteSpace=wrap;connectable=0;strokeColor=inherit;overflow=hidden;fillColor=none;top=0;left=0;bottom=0;right=0;pointerEvents=1;fontSize=16;" parent="hdS0WSCRbc31MkpZoAuO-27" vertex="1">
          <mxGeometry x="322" width="106" height="64" as="geometry">
            <mxRectangle width="106" height="64" as="alternateBounds" />
          </mxGeometry>
        </mxCell>
        <mxCell id="hdS0WSCRbc31MkpZoAuO-32" value="" style="shape=partialRectangle;html=1;whiteSpace=wrap;connectable=0;strokeColor=inherit;overflow=hidden;fillColor=none;top=0;left=0;bottom=0;right=0;pointerEvents=1;fontSize=16;" parent="hdS0WSCRbc31MkpZoAuO-27" vertex="1">
          <mxGeometry x="428" width="92" height="64" as="geometry">
            <mxRectangle width="92" height="64" as="alternateBounds" />
          </mxGeometry>
        </mxCell>
        <mxCell id="hdS0WSCRbc31MkpZoAuO-33" value="" style="shape=partialRectangle;html=1;whiteSpace=wrap;connectable=0;strokeColor=inherit;overflow=hidden;fillColor=none;top=0;left=0;bottom=0;right=0;pointerEvents=1;fontSize=16;" parent="hdS0WSCRbc31MkpZoAuO-27" vertex="1">
          <mxGeometry x="520" width="123" height="64" as="geometry">
            <mxRectangle width="123" height="64" as="alternateBounds" />
          </mxGeometry>
        </mxCell>
        <mxCell id="hdS0WSCRbc31MkpZoAuO-34" value="" style="shape=partialRectangle;html=1;whiteSpace=wrap;connectable=0;strokeColor=inherit;overflow=hidden;fillColor=none;top=0;left=0;bottom=0;right=0;pointerEvents=1;fontSize=16;" parent="hdS0WSCRbc31MkpZoAuO-27" vertex="1">
          <mxGeometry x="643" width="107" height="64" as="geometry">
            <mxRectangle width="107" height="64" as="alternateBounds" />
          </mxGeometry>
        </mxCell>
        <mxCell id="hdS0WSCRbc31MkpZoAuO-35" value="" style="shape=tableRow;horizontal=0;startSize=0;swimlaneHead=0;swimlaneBody=0;strokeColor=inherit;top=0;left=0;bottom=0;right=0;collapsible=0;dropTarget=0;fillColor=none;points=[[0,0.5],[1,0.5]];portConstraint=eastwest;fontSize=16;" parent="hdS0WSCRbc31MkpZoAuO-2" vertex="1">
          <mxGeometry y="259" width="750" height="67" as="geometry" />
        </mxCell>
        <mxCell id="hdS0WSCRbc31MkpZoAuO-36" value="" style="shape=partialRectangle;html=1;whiteSpace=wrap;connectable=0;strokeColor=inherit;overflow=hidden;fillColor=none;top=0;left=0;bottom=0;right=0;pointerEvents=1;fontSize=16;" parent="hdS0WSCRbc31MkpZoAuO-35" vertex="1">
          <mxGeometry width="107" height="67" as="geometry">
            <mxRectangle width="107" height="67" as="alternateBounds" />
          </mxGeometry>
        </mxCell>
        <mxCell id="hdS0WSCRbc31MkpZoAuO-37" value="" style="shape=partialRectangle;html=1;whiteSpace=wrap;connectable=0;strokeColor=inherit;overflow=hidden;fillColor=none;top=0;left=0;bottom=0;right=0;pointerEvents=1;fontSize=16;" parent="hdS0WSCRbc31MkpZoAuO-35" vertex="1">
          <mxGeometry x="107" width="108" height="67" as="geometry">
            <mxRectangle width="108" height="67" as="alternateBounds" />
          </mxGeometry>
        </mxCell>
        <mxCell id="hdS0WSCRbc31MkpZoAuO-38" value="" style="shape=partialRectangle;html=1;whiteSpace=wrap;connectable=0;strokeColor=inherit;overflow=hidden;fillColor=none;top=0;left=0;bottom=0;right=0;pointerEvents=1;fontSize=16;" parent="hdS0WSCRbc31MkpZoAuO-35" vertex="1">
          <mxGeometry x="215" width="107" height="67" as="geometry">
            <mxRectangle width="107" height="67" as="alternateBounds" />
          </mxGeometry>
        </mxCell>
        <mxCell id="hdS0WSCRbc31MkpZoAuO-39" value="" style="shape=partialRectangle;html=1;whiteSpace=wrap;connectable=0;strokeColor=inherit;overflow=hidden;fillColor=none;top=0;left=0;bottom=0;right=0;pointerEvents=1;fontSize=16;" parent="hdS0WSCRbc31MkpZoAuO-35" vertex="1">
          <mxGeometry x="322" width="106" height="67" as="geometry">
            <mxRectangle width="106" height="67" as="alternateBounds" />
          </mxGeometry>
        </mxCell>
        <mxCell id="hdS0WSCRbc31MkpZoAuO-40" value="" style="shape=partialRectangle;html=1;whiteSpace=wrap;connectable=0;strokeColor=inherit;overflow=hidden;fillColor=none;top=0;left=0;bottom=0;right=0;pointerEvents=1;fontSize=16;" parent="hdS0WSCRbc31MkpZoAuO-35" vertex="1">
          <mxGeometry x="428" width="92" height="67" as="geometry">
            <mxRectangle width="92" height="67" as="alternateBounds" />
          </mxGeometry>
        </mxCell>
        <mxCell id="hdS0WSCRbc31MkpZoAuO-41" value="" style="shape=partialRectangle;html=1;whiteSpace=wrap;connectable=0;strokeColor=inherit;overflow=hidden;fillColor=none;top=0;left=0;bottom=0;right=0;pointerEvents=1;fontSize=16;" parent="hdS0WSCRbc31MkpZoAuO-35" vertex="1">
          <mxGeometry x="520" width="123" height="67" as="geometry">
            <mxRectangle width="123" height="67" as="alternateBounds" />
          </mxGeometry>
        </mxCell>
        <mxCell id="hdS0WSCRbc31MkpZoAuO-42" value="" style="shape=partialRectangle;html=1;whiteSpace=wrap;connectable=0;strokeColor=inherit;overflow=hidden;fillColor=none;top=0;left=0;bottom=0;right=0;pointerEvents=1;fontSize=16;" parent="hdS0WSCRbc31MkpZoAuO-35" vertex="1">
          <mxGeometry x="643" width="107" height="67" as="geometry">
            <mxRectangle width="107" height="67" as="alternateBounds" />
          </mxGeometry>
        </mxCell>
        <mxCell id="hdS0WSCRbc31MkpZoAuO-43" value="" style="shape=tableRow;horizontal=0;startSize=0;swimlaneHead=0;swimlaneBody=0;strokeColor=inherit;top=0;left=0;bottom=0;right=0;collapsible=0;dropTarget=0;fillColor=none;points=[[0,0.5],[1,0.5]];portConstraint=eastwest;fontSize=16;" parent="hdS0WSCRbc31MkpZoAuO-2" vertex="1">
          <mxGeometry y="326" width="750" height="64" as="geometry" />
        </mxCell>
        <mxCell id="hdS0WSCRbc31MkpZoAuO-44" value="" style="shape=partialRectangle;html=1;whiteSpace=wrap;connectable=0;strokeColor=inherit;overflow=hidden;fillColor=none;top=0;left=0;bottom=0;right=0;pointerEvents=1;fontSize=16;" parent="hdS0WSCRbc31MkpZoAuO-43" vertex="1">
          <mxGeometry width="107" height="64" as="geometry">
            <mxRectangle width="107" height="64" as="alternateBounds" />
          </mxGeometry>
        </mxCell>
        <mxCell id="hdS0WSCRbc31MkpZoAuO-45" value="" style="shape=partialRectangle;html=1;whiteSpace=wrap;connectable=0;strokeColor=inherit;overflow=hidden;fillColor=none;top=0;left=0;bottom=0;right=0;pointerEvents=1;fontSize=16;" parent="hdS0WSCRbc31MkpZoAuO-43" vertex="1">
          <mxGeometry x="107" width="108" height="64" as="geometry">
            <mxRectangle width="108" height="64" as="alternateBounds" />
          </mxGeometry>
        </mxCell>
        <mxCell id="hdS0WSCRbc31MkpZoAuO-46" value="" style="shape=partialRectangle;html=1;whiteSpace=wrap;connectable=0;strokeColor=inherit;overflow=hidden;fillColor=none;top=0;left=0;bottom=0;right=0;pointerEvents=1;fontSize=16;" parent="hdS0WSCRbc31MkpZoAuO-43" vertex="1">
          <mxGeometry x="215" width="107" height="64" as="geometry">
            <mxRectangle width="107" height="64" as="alternateBounds" />
          </mxGeometry>
        </mxCell>
        <mxCell id="hdS0WSCRbc31MkpZoAuO-47" value="" style="shape=partialRectangle;html=1;whiteSpace=wrap;connectable=0;strokeColor=inherit;overflow=hidden;fillColor=none;top=0;left=0;bottom=0;right=0;pointerEvents=1;fontSize=16;" parent="hdS0WSCRbc31MkpZoAuO-43" vertex="1">
          <mxGeometry x="322" width="106" height="64" as="geometry">
            <mxRectangle width="106" height="64" as="alternateBounds" />
          </mxGeometry>
        </mxCell>
        <mxCell id="hdS0WSCRbc31MkpZoAuO-48" value="" style="shape=partialRectangle;html=1;whiteSpace=wrap;connectable=0;strokeColor=inherit;overflow=hidden;fillColor=none;top=0;left=0;bottom=0;right=0;pointerEvents=1;fontSize=16;" parent="hdS0WSCRbc31MkpZoAuO-43" vertex="1">
          <mxGeometry x="428" width="92" height="64" as="geometry">
            <mxRectangle width="92" height="64" as="alternateBounds" />
          </mxGeometry>
        </mxCell>
        <mxCell id="hdS0WSCRbc31MkpZoAuO-49" value="" style="shape=partialRectangle;html=1;whiteSpace=wrap;connectable=0;strokeColor=inherit;overflow=hidden;fillColor=none;top=0;left=0;bottom=0;right=0;pointerEvents=1;fontSize=16;" parent="hdS0WSCRbc31MkpZoAuO-43" vertex="1">
          <mxGeometry x="520" width="123" height="64" as="geometry">
            <mxRectangle width="123" height="64" as="alternateBounds" />
          </mxGeometry>
        </mxCell>
        <mxCell id="hdS0WSCRbc31MkpZoAuO-50" value="" style="shape=partialRectangle;html=1;whiteSpace=wrap;connectable=0;strokeColor=inherit;overflow=hidden;fillColor=none;top=0;left=0;bottom=0;right=0;pointerEvents=1;fontSize=16;" parent="hdS0WSCRbc31MkpZoAuO-43" vertex="1">
          <mxGeometry x="643" width="107" height="64" as="geometry">
            <mxRectangle width="107" height="64" as="alternateBounds" />
          </mxGeometry>
        </mxCell>
        <mxCell id="7026571954dc6520-2" value="EVM" style="strokeWidth=1;shadow=0;dashed=0;align=center;html=1;shape=mxgraph.mockup.containers.anchor;fontSize=17;fontColor=#666666;align=left;" parent="1" vertex="1">
          <mxGeometry x="-90" y="-588" width="110" height="26" as="geometry" />
        </mxCell>
        <mxCell id="7026571954dc6520-3" value="https://lteventmanager.com" style="strokeWidth=1;shadow=0;dashed=0;align=center;html=1;shape=mxgraph.mockup.containers.anchor;rSize=0;fontSize=17;fontColor=#666666;align=left;" parent="1" vertex="1">
          <mxGeometry x="-20" y="-540" width="250" height="26" as="geometry" />
        </mxCell>
        <mxCell id="7026571954dc6520-15" value="" style="verticalLabelPosition=bottom;shadow=0;dashed=0;align=center;html=1;verticalAlign=top;strokeWidth=1;shape=mxgraph.mockup.markup.line;strokeColor=#999999;rounded=0;labelBackgroundColor=none;fillColor=#ffffff;fontFamily=Verdana;fontSize=12;fontColor=#000000;" parent="1" vertex="1">
          <mxGeometry x="-150" y="-410" width="1050" height="20" as="geometry" />
        </mxCell>
        <mxCell id="7026571954dc6520-21" value="" style="verticalLabelPosition=bottom;shadow=0;dashed=0;align=center;html=1;verticalAlign=top;strokeWidth=1;shape=mxgraph.mockup.markup.line;strokeColor=#999999;rounded=0;labelBackgroundColor=none;fillColor=#ffffff;fontFamily=Verdana;fontSize=12;fontColor=#000000;" parent="1" vertex="1">
          <mxGeometry x="-150" y="160" width="1050" height="20" as="geometry" />
        </mxCell>
        <mxCell id="4UpdKurhmaTeGfp56cuJ-3" value="LOGO" style="rounded=0;whiteSpace=wrap;html=1;fontSize=29;" parent="1" vertex="1">
          <mxGeometry x="-145" y="-470" width="200" height="60" as="geometry" />
        </mxCell>
        <mxCell id="4UpdKurhmaTeGfp56cuJ-4" value="Copyright" style="text;html=1;strokeColor=none;fillColor=none;align=center;verticalAlign=middle;whiteSpace=wrap;rounded=0;" parent="1" vertex="1">
          <mxGeometry x="340" y="180" width="60" height="30" as="geometry" />
        </mxCell>
        <mxCell id="4UpdKurhmaTeGfp56cuJ-5" value="" style="rounded=0;whiteSpace=wrap;html=1;" parent="1" vertex="1">
          <mxGeometry x="-150" y="-400" width="210" height="570" as="geometry" />
        </mxCell>
        <mxCell id="4UpdKurhmaTeGfp56cuJ-6" value="LT会一覧" style="text;html=1;strokeColor=none;fillColor=none;align=left;verticalAlign=middle;whiteSpace=wrap;rounded=0;" parent="1" vertex="1">
          <mxGeometry x="-110" y="-380" width="130" height="30" as="geometry" />
        </mxCell>
        <mxCell id="4UpdKurhmaTeGfp56cuJ-7" value="LT会新規登録" style="text;html=1;strokeColor=none;fillColor=none;align=left;verticalAlign=middle;whiteSpace=wrap;rounded=0;" parent="1" vertex="1">
          <mxGeometry x="-110" y="-340" width="130" height="30" as="geometry" />
        </mxCell>
        <mxCell id="4UpdKurhmaTeGfp56cuJ-8" value="LT会一覧" style="text;html=1;strokeColor=none;fillColor=none;align=left;verticalAlign=middle;whiteSpace=wrap;rounded=0;" parent="1" vertex="1">
          <mxGeometry x="-110" y="-300" width="130" height="30" as="geometry" />
        </mxCell>
        <mxCell id="4UpdKurhmaTeGfp56cuJ-9" value="LT会一覧" style="text;html=1;strokeColor=none;fillColor=none;align=left;verticalAlign=middle;whiteSpace=wrap;rounded=0;" parent="1" vertex="1">
          <mxGeometry x="-110" y="-260" width="130" height="30" as="geometry" />
        </mxCell>
        <mxCell id="4UpdKurhmaTeGfp56cuJ-10" value="LT会一覧" style="text;html=1;strokeColor=none;fillColor=none;align=left;verticalAlign=middle;whiteSpace=wrap;rounded=0;" parent="1" vertex="1">
          <mxGeometry x="-110" y="-220" width="130" height="30" as="geometry" />
        </mxCell>
        <mxCell id="4UpdKurhmaTeGfp56cuJ-11" value="LT会一覧" style="text;html=1;strokeColor=none;fillColor=none;align=left;verticalAlign=middle;whiteSpace=wrap;rounded=0;" parent="1" vertex="1">
          <mxGeometry x="-110" y="-180" width="130" height="30" as="geometry" />
        </mxCell>
        <mxCell id="hdS0WSCRbc31MkpZoAuO-51" value="YYYY年MM月" style="whiteSpace=wrap;html=1;fontSize=16;rotation=0;" parent="1" vertex="1">
          <mxGeometry x="373.15" y="-360" width="183.7" height="70" as="geometry" />
        </mxCell>
      </root>
    </mxGraphModel>
  </diagram>
</mxfile>
